<svg id="Layer_1" data-name="Layer 1" xmlns="http://www.w3.org/2000/svg" viewBox="0 0 168.21 50.34"><defs><style>.cls-1{fill:#8b297c;}.cls-2{fill:#51124d;}.cls-3{fill:#fff;}.cls-4{fill:none;stroke:#231f20;stroke-miterlimit:10;stroke-width:0.25px;}</style></defs><title>Artboard 2</title><path class="cls-1" d="M25.17,50.34A25.17,25.17,0,1,1,50.34,25.17,25.2,25.2,0,0,1,25.17,50.34Z"/><path class="cls-2" d="M21.87,23.82a1.31,1.31,0,0,0,.42-1.06,1.34,1.34,0,0,0-.42-1.07,1.63,1.63,0,0,0-1.11-.36H18.68v2.84h2.08A1.65,1.65,0,0,0,21.87,23.82Z"/><path class="cls-2" d="M22.16,29.2a1.4,1.4,0,0,0,.43-1.08,1.5,1.5,0,0,0-.41-1.1,1.43,1.43,0,0,0-1.06-.41H18.68v3h2.4A1.54,1.54,0,0,0,22.16,29.2Z"/><path class="cls-2" d="M24.35,19.87l.28.25Z"/><path class="cls-2" d="M31.22,18.9H28v4.62l-3.41-3.4h0a3,3,0,0,1,.9,2.22q0,2.23-2.59,3a3.25,3.25,0,0,1,2.1,1.1,3.21,3.21,0,0,1,.78,2.15,3,3,0,0,1-1.14,2.5,4.94,4.94,0,0,1-3.19.93h-6l17.58,17h0A25.3,25.3,0,0,0,48,35.65Z"/><path class="cls-3" d="M15.5,18.9h5.67a4.84,4.84,0,0,1,3.17,1,3.06,3.06,0,0,1,1.18,2.47q0,2.23-2.59,3a3.25,3.25,0,0,1,2.1,1.1,3.21,3.21,0,0,1,.78,2.15,3,3,0,0,1-1.14,2.5,4.94,4.94,0,0,1-3.19.93h-6Zm3.18,2.43v2.84h2.08a1.65,1.65,0,0,0,1.11-.36,1.31,1.31,0,0,0,.42-1.06,1.34,1.34,0,0,0-.42-1.07,1.63,1.63,0,0,0-1.11-.36Zm0,8.26h2.4a1.54,1.54,0,0,0,1.08-.39,1.4,1.4,0,0,0,.43-1.08,1.5,1.5,0,0,0-.41-1.1,1.43,1.43,0,0,0-1.06-.41H18.68Z"/><path class="cls-3" d="M28,18.9h3.18V29.6h4V32H28Z"/><path class="cls-2" d="M66.57,37.2a.86.86,0,0,0-.56.18.63.63,0,0,0-.22.52.59.59,0,0,0,.26.52,1.78,1.78,0,0,0,.63.26l.73.19a1.32,1.32,0,0,1,.63.39,1.18,1.18,0,0,1,.26.81,1.27,1.27,0,0,1-.44.94,1.65,1.65,0,0,1-1.18.42,2,2,0,0,1-1.2-.35,1.14,1.14,0,0,1-.46-1h.83a.73.73,0,0,0,.23.5.87.87,0,0,0,.6.18.9.9,0,0,0,.62-.21.68.68,0,0,0,.09-.92.85.85,0,0,0-.36-.24,4.41,4.41,0,0,0-.49-.14L66,39.15a2.27,2.27,0,0,1-.49-.21,1,1,0,0,1-.36-.38,1.24,1.24,0,0,1-.14-.61,1.25,1.25,0,0,1,.45-1,1.72,1.72,0,0,1,1.16-.38,1.81,1.81,0,0,1,1.14.33,1.26,1.26,0,0,1,.47,1h-.86a.69.69,0,0,0-.23-.46A.79.79,0,0,0,66.57,37.2Z"/><path class="cls-2" d="M69.89,41.38V36.63h.78v4.75Z"/><path class="cls-2" d="M75.48,36.62h.78v4.76h-.78l-2.33-3.55v3.55h-.78V36.62h.78l2.33,3.54Z"/><path class="cls-2" d="M78.4,40.73a2.52,2.52,0,0,1,0-3.48,2.35,2.35,0,0,1,1.71-.69,2.46,2.46,0,0,1,1.34.37A2.12,2.12,0,0,1,82.31,38h-.93a1.32,1.32,0,0,0-1.27-.72,1.54,1.54,0,0,0-1.17.47,1.95,1.95,0,0,0,0,2.5,1.54,1.54,0,0,0,1.17.47A1.32,1.32,0,0,0,81.38,40h.93A2.1,2.1,0,0,1,81.45,41a2.47,2.47,0,0,1-1.34.37A2.36,2.36,0,0,1,78.4,40.73Z"/><path class="cls-2" d="M86.5,36.62v.61H84.67v1.44H86.3v.6H84.67v1.5H86.5v.61H83.89V36.62Z"/><path class="cls-2" d="M91.28,41.38V37.23h-.63v-.71h1.41v4.85Z"/><path class="cls-2" d="M95.68,40.72a.76.76,0,0,0,.71-.38A2.75,2.75,0,0,0,96.61,39a1,1,0,0,1-.46.36,1.62,1.62,0,0,1-.64.13,1.59,1.59,0,0,1-1.13-.42,1.53,1.53,0,0,1-.45-1.17,1.65,1.65,0,0,1,.44-1.2,1.61,1.61,0,0,1,1.21-.45,1.44,1.44,0,0,1,1.32.62,3.69,3.69,0,0,1,.39,1.92,4,4,0,0,1-.36,1.93,1.37,1.37,0,0,1-1.29.62A1.54,1.54,0,0,1,94.51,41a1.46,1.46,0,0,1-.44-1h.71A.81.81,0,0,0,95.68,40.72Zm-1-2.83a1,1,0,0,0,.24.7,1,1,0,0,0,1.37,0,1.16,1.16,0,0,0,0-1.42.89.89,0,0,0-.68-.26.87.87,0,0,0-.68.27A1,1,0,0,0,94.67,37.89Z"/><path class="cls-2" d="M98.94,37.58a1.24,1.24,0,0,1,.43-1,2.08,2.08,0,0,1,2.41,0,1.24,1.24,0,0,1,.43,1,1.18,1.18,0,0,1-.19.67,1.29,1.29,0,0,1-.51.45,1.28,1.28,0,0,1,.61.48,1.36,1.36,0,0,1,.22.79,1.39,1.39,0,0,1-.49,1.11,2.14,2.14,0,0,1-2.54,0A1.39,1.39,0,0,1,98.82,40a1.37,1.37,0,0,1,.22-.79,1.25,1.25,0,0,1,.61-.47A1.18,1.18,0,0,1,98.94,37.58Zm2.63,2.34a.81.81,0,0,0-.27-.65,1.08,1.08,0,0,0-.72-.23,1.14,1.14,0,0,0-.73.23.79.79,0,0,0-.28.65.87.87,0,0,0,.27.68,1.05,1.05,0,0,0,.74.25,1,1,0,0,0,.73-.25A.88.88,0,0,0,101.58,39.93Zm-.11-2.27a.71.71,0,0,0-.24-.57,1.13,1.13,0,0,0-1.3,0,.71.71,0,0,0-.24.57.73.73,0,0,0,.25.58,1,1,0,0,0,1.28,0A.73.73,0,0,0,101.47,37.66Z"/><path class="cls-2" d="M105.68,36.92a.89.89,0,0,0-.8.41,2.72,2.72,0,0,0-.28,1.37,1.17,1.17,0,0,1,.52-.47,1.67,1.67,0,0,1,.73-.16,1.46,1.46,0,0,1,1.1.44,1.64,1.64,0,0,1,.42,1.19,1.72,1.72,0,0,1-.43,1.21,1.55,1.55,0,0,1-1.2.46,1.51,1.51,0,0,1-1.45-.71,2.5,2.5,0,0,1-.29-.81,6.21,6.21,0,0,1-.08-1.08q0-2.5,1.75-2.5a1.5,1.5,0,0,1,1.07.37,1.46,1.46,0,0,1,.46.91h-.71A.76.76,0,0,0,105.68,36.92Zm1,2.82a1.07,1.07,0,0,0-.24-.73.86.86,0,0,0-.68-.28A1.08,1.08,0,0,0,105,39a.9.9,0,0,0-.29.72,1,1,0,0,0,.27.75,1,1,0,0,0,.72.28.92.92,0,0,0,.7-.27A1,1,0,0,0,106.63,39.74Z"/><path class="cls-2" d="M64.61,19.09h2.62V30.14H71.4v2H64.61Z"/><path class="cls-2" d="M75.92,32.14V19.09h2.62V32.14Z"/><path class="cls-2" d="M85.28,30.36a6.44,6.44,0,0,1-1.92-4.79A6.52,6.52,0,0,1,90,18.9,6.69,6.69,0,0,1,93.77,20a6,6,0,0,1,2.35,3H93a3.07,3.07,0,0,0-3-1.72,3.78,3.78,0,0,0-2.87,1.17A4.33,4.33,0,0,0,86,25.59a4.33,4.33,0,0,0,1.11,3.1,3.59,3.59,0,0,0,2.72,1.17,3.74,3.74,0,0,0,2.53-.79,3.47,3.47,0,0,0,1.14-2.14H89.2v-2h7.12v2a6.56,6.56,0,0,1-11.05,3.44Z"/><path class="cls-2" d="M109.35,19.09H112V32.14h-2.62V26.55h-5.58v5.59h-2.62V19.09h2.62v5.44h5.58Z"/><path class="cls-2" d="M116.75,21.11v-2h9.62v2h-3.52v11h-2.6v-11Z"/><path class="cls-2" d="M131.13,32.14V19.09h2.62V32.14Z"/><path class="cls-2" d="M147.8,19.05h2.62V32.14H147.8l-5.88-9.05v9.05H139.3V19.05h2.62l5.88,9.05Z"/><path class="cls-2" d="M157.16,30.36a6.44,6.44,0,0,1-1.92-4.79,6.52,6.52,0,0,1,6.64-6.68A6.69,6.69,0,0,1,165.65,20,6,6,0,0,1,168,23h-3.14a3.07,3.07,0,0,0-3-1.72A3.78,3.78,0,0,0,159,22.48a4.33,4.33,0,0,0-1.11,3.1,4.33,4.33,0,0,0,1.11,3.1,3.59,3.59,0,0,0,2.72,1.17,3.74,3.74,0,0,0,2.53-.79,3.47,3.47,0,0,0,1.14-2.14h-4.32v-2h7.12v2a6.56,6.56,0,0,1-11.05,3.44Z"/><rect class="cls-4" x="-107.56" y="-244.56" width="383.33" height="383.33"/></svg>